<?xml version="1.0" encoding="UTF-8"?><svg id="pictos" xmlns="http://www.w3.org/2000/svg" viewBox="0 0 300 300"><defs><style>.cls-1{fill:#fff;fill-rule:evenodd;stroke-width:0px;}</style></defs><path id="path28" class="cls-1" d="m78.75,273.18V102.96H22.17v170.22h56.58Zm-28.29-193.46c19.73,0,32.01-13.07,32.01-29.41-.37-16.7-12.28-29.41-31.64-29.41s-32.01,12.71-32.01,29.41,12.28,29.41,31.26,29.41h.37Z"/><path id="path30" class="cls-1" d="m110.05,273.18h56.58v-95.06c0-5.09.37-10.17,1.86-13.81,4.09-10.16,13.4-20.69,29.03-20.69,20.47,0,28.66,15.61,28.66,38.49v91.06h56.57v-97.6c0-52.28-27.91-76.61-65.14-76.61-30.52,0-43.92,17.06-51.37,28.68h.38v-24.69h-56.58c.74,15.97,0,170.22,0,170.22h0Z"/></svg>