<?xml version="1.0" encoding="UTF-8"?><svg id="pictos" xmlns="http://www.w3.org/2000/svg" viewBox="0 0 300 300"><defs><style>.cls-1{fill:#fff;stroke-width:0px;}</style></defs><path class="cls-1" d="m290.29,82.99c-3.33-12.46-13.13-22.25-25.59-25.59-22.56-6.05-113.07-6.05-113.07-6.05,0,0-90.51,0-113.07,6.05-12.46,3.34-22.25,13.13-25.59,25.59-6.05,22.56-6.05,69.66-6.05,69.66,0,0,0,47.1,6.05,69.66,3.34,12.46,13.13,22.25,25.59,25.59,22.56,6.05,113.07,6.05,113.07,6.05,0,0,90.51,0,113.07-6.05,12.46-3.33,22.25-13.13,25.59-25.59,6.05-22.56,6.05-69.66,6.05-69.66,0,0-.02-47.1-6.05-69.66Zm-167.18,112.81v-86.82l75.19,43.41-75.19,43.41Z"/></svg>