<?xml version="1.0" encoding="UTF-8"?><svg id="pictos" xmlns="http://www.w3.org/2000/svg" viewBox="0 0 300 300"><defs><style>.cls-1{fill:#fff;stroke-width:0px;}</style></defs><path class="cls-1" d="m150.67,9.58c-38.11,0-42.9.17-57.87.85-14.94.68-25.14,3.05-34.06,6.52-9.23,3.58-17.06,8.38-24.86,16.18-7.81,7.8-12.6,15.63-16.2,24.86-3.48,8.93-5.85,19.13-6.52,34.06-.67,14.97-.84,19.76-.84,57.87s.17,42.88.85,57.85c.69,14.94,3.05,25.14,6.52,34.06,3.59,9.23,8.38,17.06,16.19,24.86,7.8,7.81,15.63,12.61,24.85,16.2,8.93,3.47,19.13,5.84,34.07,6.52,14.97.68,19.75.85,57.86.85s42.89-.17,57.85-.85c14.94-.68,25.15-3.05,34.08-6.52,9.23-3.58,17.05-8.39,24.84-16.2,7.81-7.8,12.6-15.63,16.2-24.86,3.45-8.93,5.82-19.13,6.52-34.06.67-14.97.85-19.74.85-57.85s-.18-42.9-.85-57.87c-.7-14.94-3.07-25.14-6.52-34.06-3.6-9.23-8.39-17.06-16.2-24.86-7.81-7.81-15.61-12.6-24.85-16.18-8.95-3.47-19.15-5.84-34.09-6.52-14.97-.68-19.74-.85-57.86-.85h.04Zm-12.59,25.29c3.74,0,7.91,0,12.59,0,37.47,0,41.91.13,56.71.81,13.68.63,21.11,2.91,26.06,4.83,6.55,2.54,11.22,5.58,16.13,10.5,4.91,4.91,7.95,9.59,10.5,16.14,1.92,4.94,4.21,12.37,4.83,26.05.67,14.79.82,19.24.82,56.69s-.15,41.9-.82,56.69c-.63,13.68-2.91,21.11-4.83,26.05-2.54,6.55-5.59,11.21-10.5,16.12-4.91,4.91-9.58,7.95-16.13,10.5-4.94,1.93-12.37,4.21-26.06,4.84-14.79.67-19.24.82-56.71.82s-41.91-.15-56.71-.82c-13.68-.63-21.11-2.92-26.06-4.84-6.55-2.54-11.23-5.58-16.14-10.5-4.91-4.91-7.95-9.58-10.5-16.13-1.92-4.94-4.21-12.37-4.83-26.05-.67-14.79-.81-19.24-.81-56.71s.13-41.9.81-56.69c.63-13.68,2.91-21.11,4.83-26.06,2.54-6.55,5.59-11.23,10.5-16.14,4.91-4.91,9.59-7.95,16.14-10.5,4.95-1.93,12.38-4.21,26.06-4.84,12.95-.58,17.96-.76,44.12-.79v.04Zm87.5,23.3c-9.3,0-16.84,7.53-16.84,16.83s7.54,16.84,16.84,16.84,16.84-7.54,16.84-16.84-7.54-16.84-16.84-16.84h0Zm-74.91,19.68c-39.8,0-72.07,32.27-72.07,72.07s32.27,72.06,72.07,72.06c39.8,0,72.06-32.25,72.06-72.06s-32.26-72.07-72.06-72.07h0Zm0,25.29c25.83,0,46.78,20.94,46.78,46.78s-20.95,46.78-46.78,46.78-46.78-20.95-46.78-46.78,20.94-46.78,46.78-46.78Z"/></svg>